<?xml version="1.0" encoding="utf-8"?>
<!-- Generator: Adobe Illustrator 25.0.0, SVG Export Plug-In . SVG Version: 6.00 Build 0)  -->
<svg version="1.1" id="Layer_1" xmlns="http://www.w3.org/2000/svg" xmlns:xlink="http://www.w3.org/1999/xlink" x="0px" y="0px"
	 viewBox="0 0 949.61 340.16" style="enable-background:new 0 0 949.61 340.16;" xml:space="preserve">
<style type="text/css">
	.st0{fill:#0EA9E2;}
	.st1{display:none;fill:#FEFEFE;}
	.st2{display:none;fill:#FAFDFE;}
</style>
<g>
	<path class="st0" d="M471.51,160.56c4.15,0,8.29,0.01,12.44-0.01c0.25,0,0.46,0.2,0.46,0.46c-0.02,4.15-0.01,8.31-0.01,12.46
		c-2.08,2.07-4.2,4.18-6.27,6.26c-0.01,0-0.01,0.01-0.02,0.01c-4.13,0-8.27-0.01-12.4,0.01c-0.28,0-0.5-0.22-0.5-0.5
		c0.02-4.13,0.01-8.27,0.01-12.4 M476.85,174.88C476.85,174.9,476.85,174.86,476.85,174.88c0.77,0,1.55-0.02,2.32,0.01
		c0.44,0.02,0.64-0.11,0.61-0.59c-0.04-0.52-0.04-1.05,0-1.57c0.04-0.52-0.19-0.62-0.65-0.62c-1.37,0.02-2.75,0.02-4.12,0
		c-1.61-0.02-2.49-0.94-2.47-2.54c0.01-1.53,0.92-2.42,2.51-2.43c1.37-0.01,2.75-0.02,4.12,0c0.43,0.01,0.65-0.07,0.62-0.57
		c-0.04-0.55-0.03-1.1,0-1.65c0.01-0.37-0.09-0.54-0.5-0.53c-1.67,0.03-3.35-0.04-5.01,0.06c-1.8,0.11-3.15,1.02-3.94,2.68
		c-0.5,1.05-0.57,2.16-0.46,3.29c0.24,2.42,1.96,4.16,4.37,4.37C475.1,174.88,475.98,174.88,476.85,174.88z"/>
	<path class="st1" d="M471.3,160.17c-0.02,0.07-0.02,0.15-0.07,0.2c-2.01,2.01-4.01,4.02-6.03,6.03c-0.04,0.04-0.13,0.05-0.2,0.07
		c0-1.97,0.01-3.95-0.01-5.92c0-0.32,0.06-0.39,0.38-0.38C467.36,160.18,469.33,160.17,471.3,160.17z"/>
	<path class="st1" d="M477.9,179.35c0.02-0.07,0.02-0.15,0.07-0.2c2.01-2.01,4.01-4.02,6.03-6.03c0.04-0.04,0.13-0.05,0.2-0.07
		c0,1.97-0.01,3.95,0.01,5.92c0,0.32-0.06,0.39-0.38,0.38C481.84,179.34,479.87,179.35,477.9,179.35z"/>
	<path class="st2" d="M476.65,174.43c-0.87,0-1.75,0.06-2.62-0.01c-2.41-0.2-4.13-1.95-4.37-4.37c-0.11-1.13-0.03-2.25,0.46-3.29
		c0.79-1.66,2.14-2.57,3.94-2.68c1.67-0.1,3.34-0.03,5.01-0.06c0.41-0.01,0.51,0.16,0.5,0.53c-0.02,0.55-0.04,1.1,0,1.65
		c0.04,0.5-0.19,0.57-0.62,0.57c-1.37-0.02-2.75-0.02-4.12,0c-1.59,0.01-2.49,0.9-2.51,2.43c-0.02,1.6,0.86,2.52,2.47,2.54
		c1.37,0.02,2.75,0.02,4.12,0c0.46-0.01,0.7,0.09,0.65,0.62c-0.04,0.52-0.04,1.05,0,1.57c0.03,0.48-0.17,0.6-0.61,0.59
		c-0.77-0.03-1.55-0.01-2.32-0.01C476.65,174.47,476.65,174.45,476.65,174.43z"/>
</g>
</svg>
